
<svg width="106" height="24" viewBox="0 0 106 24" fill="none" xmlns="http://www.w3.org/2000/svg">
  <path d="M14.5 2.5C7.6 2.5 2 8.1 2 15C2 21.9 7.6 27.5 14.5 27.5C21.4 27.5 27 21.9 27 15C27 8.1 21.4 2.5 14.5 2.5ZM21.5 16H15.5V22H13.5V16H7.5V14H13.5V8H15.5V14H21.5V16Z" fill="white"/>
  <path d="M35.424 18.736C35.424 17.216 36.752 16.16 38.684 16.16C39.724 16.16 40.652 16.496 41.356 17.104V15.776C40.748 15.248 39.676 14.896 38.492 14.896C35.82 14.896 33.94 16.776 33.94 18.816C33.94 20.856 35.868 22.736 38.492 22.736C39.676 22.736 40.748 22.4 41.356 21.856V20.528C40.652 21.136 39.724 21.472 38.684 21.472C36.752 21.472 35.424 20.256 35.424 18.736Z" fill="white"/>
  <path d="M49.0403 14.896C47.5683 14.896 46.2883 15.696 45.8323 16.912L45.6403 15H44.1523V22.624H45.6403V18.864C45.6403 17.056 46.8163 16.16 48.4243 16.16C49.6003 16.16 50.6563 16.896 50.6563 18.512V22.624H52.1283V18.288C52.1283 16.144 50.8403 14.896 49.0403 14.896Z" fill="white"/>
  <path d="M60.6001 14.896C59.1281 14.896 57.8481 15.696 57.3921 16.912L57.2001 15H55.7121V22.624H57.2001V18.864C57.2001 17.056 58.3761 16.16 59.9841 16.16C61.1601 16.16 62.2161 16.896 62.2161 18.512V22.624H63.6881V18.288C63.6881 16.144 62.4001 14.896 60.6001 14.896Z" fill="white"/>
  <path d="M72.2675 14.896C69.7355 14.896 67.7995 16.8 67.7995 19.232C67.7995 21.68 69.7355 23.584 72.2675 23.584C74.7835 23.584 76.7195 21.68 76.7195 19.232C76.7195 16.8 74.7835 14.896 72.2675 14.896ZM72.2675 22.224C70.5315 22.224 69.2835 20.96 69.2835 19.232C69.2835 17.504 70.5315 16.256 72.2675 16.256C74.0035 16.256 75.2515 17.504 75.2515 19.232C75.2515 20.96 74.0035 22.224 72.2675 22.224Z" fill="white"/>
  <path d="M83.2612 14.896C81.6532 14.896 80.0772 15.696 79.6852 17.552L79.4932 15H78.0052V26.368H79.4932V21.184C80.0292 22.032 81.1892 22.624 82.5172 22.624C85.0332 22.624 86.9052 20.736 86.9052 18.32C86.9052 15.92 85.0332 14.896 83.2612 14.896ZM82.8212 21.232C81.2932 21.232 79.4932 20.352 79.4932 18.32C79.4932 16.288 81.2932 16.288 82.8212 16.288C84.2452 16.288 85.4372 16.928 85.4372 18.768C85.4372 20.592 84.2452 21.232 82.8212 21.232Z" fill="white"/>
  <path d="M94.1789 14.896C91.7269 14.896 89.7909 16.784 89.7909 19.232C89.7909 21.68 91.7269 23.584 94.3069 23.584C95.5949 23.584 96.7549 23.136 97.5549 22.384L96.6349 21.36C96.0749 21.872 95.2909 22.128 94.5389 22.128C93.0669 22.128 91.9229 21.328 91.6189 20.016H98.2269V19.456C98.2269 16.72 96.6349 14.896 94.1789 14.896ZM91.6189 18.784C91.9069 17.44 92.9949 16.352 94.1789 16.352C95.4349 16.352 96.5469 17.376 96.7389 18.784H91.6189Z" fill="white"/>
  <path d="M105.242 14.896C103.77 14.896 102.49 15.696 102.034 16.912L101.842 15H100.354V22.624H101.842V18.864C101.842 17.056 103.018 16.16 104.626 16.16C105.802 16.16 106.858 16.896 106.858 18.512V22.624H108.33V18.288C108.33 16.144 107.042 14.896 105.242 14.896Z" fill="white"/>
</svg>
